<svg width="100" height="100" viewBox="0 0 100 100" fill="none" xmlns="http://www.w3.org/2000/svg">
<path d="M39.9904 9.00144C40.4873 8.59567 40.736 8.39278 40.9628 8.22149C46.3089 4.18592 53.6912 4.18592 59.0373 8.22149C59.2641 8.39278 59.5125 8.59567 60.0097 9.00144C60.2317 9.18258 60.3427 9.27314 60.4523 9.35937C62.968 11.336 66.0527 12.4561 69.2533 12.5554C69.393 12.5597 69.5364 12.5615 69.823 12.5651C70.4653 12.573 70.7863 12.577 71.0704 12.5913C77.7657 12.9284 83.4211 17.663 84.9163 24.183C84.9798 24.4597 85.0393 24.7745 85.1588 25.404C85.212 25.6852 85.2388 25.8258 85.2672 25.9621C85.9209 29.0898 87.5622 31.926 89.9502 34.0547C90.0544 34.1478 90.1631 34.2409 90.3802 34.4276C90.8671 34.8456 91.1105 35.0545 91.3191 35.2478C96.2306 39.7998 97.5127 47.0535 94.4576 53.0071C94.3281 53.2599 94.171 53.5393 93.8568 54.0983C93.7165 54.3476 93.6462 54.4725 93.5802 54.5952C92.0661 57.4103 91.4961 60.6356 91.954 63.798C91.9739 63.9357 91.997 64.0769 92.0434 64.3592C92.147 64.9916 92.1988 65.3078 92.234 65.5895C93.0639 72.2265 89.3725 78.6056 83.1968 81.2068C82.9347 81.3172 82.6342 81.4307 82.0334 81.6573C81.7653 81.7583 81.6313 81.809 81.5015 81.8608C78.5278 83.0464 76.0135 85.1515 74.327 87.8674C74.2533 87.9858 74.1801 88.1087 74.0335 88.3546C73.7057 88.9056 73.5418 89.181 73.3872 89.4195C69.747 95.0359 62.8098 97.5552 56.4028 95.5872C56.131 95.5038 55.8276 95.3979 55.2215 95.1862C54.9508 95.0917 54.8156 95.0445 54.683 95.0009C51.6413 94.002 48.3588 94.002 45.3171 95.0009C45.1845 95.0445 45.049 95.0917 44.7784 95.1862C44.1722 95.3979 43.8691 95.5038 43.5973 95.5872C37.1903 97.5552 30.2531 95.0359 26.6129 89.4195C26.4583 89.181 26.2944 88.9056 25.9663 88.3546C25.82 88.1087 25.7468 87.9858 25.6731 87.8674C23.9866 85.1515 21.4721 83.0464 18.4985 81.8608C18.3688 81.809 18.2347 81.7583 17.9665 81.6573C17.3657 81.4307 17.0654 81.3172 16.8032 81.2068C10.6274 78.6056 6.93615 72.2265 7.76605 65.5895C7.80128 65.3078 7.8531 64.9916 7.95678 64.3592C8.00306 64.0769 8.02619 63.9357 8.04614 63.798C8.50394 60.6356 7.93396 57.4103 6.41979 54.5952C6.35373 54.4725 6.28361 54.3476 6.14336 54.0983C5.82914 53.5393 5.67205 53.2599 5.54239 53.0071C2.48741 47.0535 3.76935 39.7998 8.68095 35.2478C8.88945 35.0545 9.13286 34.8456 9.61968 34.4276C9.83702 34.2409 9.94568 34.1478 10.0498 34.0547C12.4377 31.926 14.079 29.0898 14.7328 25.9621C14.7613 25.8258 14.7879 25.6852 14.8412 25.404C14.9606 24.7745 15.0203 24.4597 15.0838 24.1829C16.5791 17.663 22.2344 12.9284 28.9294 12.5913C29.2137 12.577 29.5348 12.573 30.1771 12.5651C30.4637 12.5615 30.6071 12.5597 30.7466 12.5554C33.9474 12.4561 37.0318 11.336 39.5476 9.35937C39.6574 9.27314 39.7684 9.18258 39.9904 9.00144Z" fill="#262626"/>
<g clip-path="url(#clip0_1_10)">
<path d="M64.2003 38.5711L53.6771 36.1534C53.2761 35.9925 52.9394 35.6257 52.741 35.1336C52.5427 34.6415 52.499 34.0644 52.6196 33.5293C52.7401 32.9942 53.0151 32.545 53.3839 32.2804C53.7527 32.0157 54.1853 31.9575 54.5863 32.1183L65.4133 34.536C65.9484 34.6969 66.3977 35.0637 66.6623 35.5558C66.9269 36.0479 66.9852 36.625 66.8243 37.16C66.6635 37.6951 66.2967 38.1444 65.8046 38.409C65.3125 38.6736 64.7354 38.7319 64.2003 38.5711ZM75.5628 47.1198C75.7237 46.5848 75.6654 46.0077 75.4008 45.5156C75.1361 45.0235 74.6869 44.6567 74.1518 44.4958L45.0061 35.6087C44.605 35.4479 44.1725 35.5061 43.8037 35.7708C43.4348 36.0354 43.1599 36.4846 43.0393 37.0197C42.9188 37.5548 42.9625 38.1319 43.1608 38.624C43.3591 39.1161 43.6959 39.4829 44.0969 39.6438L72.9388 48.5309C73.4739 48.6917 74.0509 48.6334 74.543 48.3688C75.0351 48.1042 75.402 47.6549 75.5628 47.1198ZM68.1611 52.2276C68.3219 51.6925 68.2636 51.1154 67.999 50.6233C67.7344 50.1312 67.2851 49.7644 66.75 49.6035L47.5233 43.9511C47.1222 43.7903 46.6897 43.8486 46.3209 44.1132C45.952 44.3778 45.6771 44.8271 45.5565 45.3622C45.4359 45.8972 45.4796 46.4743 45.678 46.9664C45.8763 47.4585 46.213 47.8253 46.6141 47.9862L65.537 53.6386C66.0721 53.7995 66.6492 53.7412 67.1413 53.4765C67.6334 53.2119 68.0002 52.7627 68.1611 52.2276ZM60.7593 57.3353C60.9202 56.8002 60.8619 56.2232 60.5972 55.7311C60.3326 55.239 59.8834 54.8721 59.3483 54.7113L50.0405 52.2936C49.6394 52.1327 49.2069 52.191 48.838 52.4556C48.4692 52.7203 48.1943 53.1695 48.0737 53.7046C47.9531 54.2397 47.9968 54.8167 48.1952 55.3089C48.3935 55.801 48.7302 56.1678 49.1313 56.3286L58.1353 58.7463C58.6703 58.9072 59.2474 58.8489 59.7395 58.5843C60.2316 58.3197 60.5984 57.8704 60.7593 57.3353ZM61.4277 64.8691C61.5885 64.334 61.5302 63.7569 61.2656 63.2648C61.001 62.7727 60.5517 62.4059 60.0166 62.2451L46.5089 58.21C46.1079 58.0491 45.6754 58.1074 45.3065 58.3721C44.9377 58.6367 44.6627 59.0859 44.5422 59.621C44.4216 60.1561 44.4653 60.7332 44.6636 61.2253C44.862 61.7174 45.1987 62.0842 45.5998 62.2451L58.8036 66.2801C59.3387 66.441 59.9158 66.3827 60.4079 66.1181C60.9 65.8534 61.2668 65.4042 61.4277 64.8691Z" fill="#737373"/>
<path d="M54.8243 38.5724L40.7933 34.3131C40.4791 34.2177 40.1469 34.197 39.8233 34.2528C39.4997 34.3086 39.1936 34.4392 38.9294 34.6343C38.6653 34.8295 38.4504 35.0836 38.3019 35.3766C38.1535 35.6695 38.0755 35.9931 38.0744 36.3215L38.0169 53.916C36.312 52.8187 34.2903 52.3201 32.2707 52.499C30.2511 52.6779 28.3485 53.524 26.863 54.9039C25.3775 56.2838 24.3937 58.1189 24.0666 60.1199C23.7395 62.1208 24.0879 64.1737 25.0567 65.9548C26.0255 67.7358 27.5597 69.1437 29.4172 69.9563C31.2747 70.7689 33.3499 70.9401 35.3155 70.4427C37.281 69.9454 39.0251 68.8079 40.2726 67.2096C41.5201 65.6113 42.2001 63.6432 42.2052 61.6157L42.2785 39.167L53.5998 42.6028C53.8646 42.6832 54.1428 42.7107 54.4182 42.6836C54.6937 42.6565 54.9612 42.5754 55.2053 42.445C55.4494 42.3146 55.6655 42.1373 55.8412 41.9234C56.0168 41.7094 56.1486 41.463 56.229 41.1981C56.3094 40.9333 56.3368 40.6552 56.3098 40.3797C56.2827 40.1042 56.2016 39.8368 56.0712 39.5926C55.9407 39.3485 55.7635 39.1324 55.5496 38.9567C55.3356 38.7811 55.0892 38.6493 54.8243 38.5689L54.8243 38.5724ZM33.0601 66.5015C32.0879 66.4984 31.1384 66.207 30.3318 65.6642C29.5252 65.1214 28.8977 64.3516 28.5285 63.4522C28.1594 62.5528 28.0653 61.5641 28.2581 60.6112C28.4509 59.6582 28.9219 58.7839 29.6116 58.0986C30.3013 57.4134 31.1787 56.9481 32.1329 56.7616C33.0871 56.575 34.0751 56.6756 34.9721 57.0506C35.8691 57.4256 36.6348 58.0581 37.1723 58.8682C37.7098 59.6784 37.995 60.6297 37.9918 61.6019C37.9876 62.9057 37.4656 64.1543 36.5407 65.0731C35.6158 65.992 34.3638 66.5058 33.0601 66.5015Z" fill="#A1A1A1"/>
</g>
<defs>
<clipPath id="clip0_1_10">
<rect width="54.8144" height="43.2196" fill="white" transform="translate(23.3766 28.5714)"/>
</clipPath>
</defs>
</svg>
