<svg width="100" height="100" viewBox="0 0 100 100" fill="none" xmlns="http://www.w3.org/2000/svg">
<g clip-path="url(#clip0_60862_99)">
<rect width="100" height="100" fill="#0A0A0A"/>
<path d="M40.0943 7.80663C40.5912 7.40086 40.8399 7.19797 41.0667 7.02668C46.4128 2.99111 53.7951 2.99111 59.1412 7.02668C59.368 7.19797 59.6164 7.40086 60.1136 7.80663C60.3356 7.98777 60.4466 8.07833 60.5562 8.16456C63.0719 10.1412 66.1566 11.2613 69.3572 11.3606C69.4969 11.3649 69.6403 11.3667 69.9269 11.3703C70.5692 11.3782 70.8902 11.3822 71.1743 11.3965C77.8696 11.7336 83.525 16.4682 85.0202 22.9882C85.0837 23.2649 85.1432 23.5797 85.2627 24.2092C85.3159 24.4904 85.3427 24.631 85.3711 24.7673C86.0248 27.895 87.6661 30.7312 90.0541 32.8599C90.1583 32.953 90.267 33.0461 90.4841 33.2328C90.971 33.6508 91.2144 33.8597 91.423 34.053C96.3345 38.605 97.6166 45.8587 94.5615 51.8123C94.432 52.0651 94.2749 52.3445 93.9607 52.9035C93.8204 53.1528 93.7501 53.2777 93.6841 53.4004C92.17 56.2155 91.6 59.4408 92.0579 62.6032C92.0778 62.7409 92.1009 62.8821 92.1473 63.1644C92.2509 63.7968 92.3027 64.113 92.3379 64.3947C93.1678 71.0317 89.4764 77.4108 83.3007 80.012C83.0386 80.1224 82.7381 80.2359 82.1373 80.4625C81.8692 80.5635 81.7352 80.6142 81.6054 80.666C78.6317 81.8516 76.1174 83.9567 74.4309 86.6726C74.3572 86.791 74.284 86.9139 74.1374 87.1598C73.8096 87.7108 73.6457 87.9862 73.4911 88.2247C69.8509 93.8411 62.9137 96.3604 56.5067 94.3924C56.2349 94.309 55.9315 94.2031 55.3254 93.9914C55.0547 93.8969 54.9195 93.8497 54.7869 93.8061C51.7452 92.8072 48.4627 92.8072 45.421 93.8061C45.2884 93.8497 45.1529 93.8969 44.8823 93.9914C44.2761 94.2031 43.973 94.309 43.7012 94.3924C37.2942 96.3604 30.357 93.8411 26.7168 88.2247C26.5622 87.9862 26.3983 87.7108 26.0702 87.1598C25.9239 86.9139 25.8507 86.791 25.777 86.6726C24.0905 83.9567 21.576 81.8516 18.6024 80.666C18.4727 80.6142 18.3386 80.5635 18.0704 80.4625C17.4696 80.2359 17.1693 80.1224 16.9071 80.012C10.7313 77.4108 7.04005 71.0317 7.86995 64.3947C7.90518 64.113 7.957 63.7968 8.06068 63.1644C8.10696 62.8821 8.13009 62.7409 8.15004 62.6032C8.60784 59.4408 8.03786 56.2155 6.52369 53.4004C6.45763 53.2777 6.38751 53.1528 6.24726 52.9035C5.93304 52.3445 5.77595 52.0651 5.64629 51.8123C2.59131 45.8587 3.87325 38.605 8.78485 34.053C8.99335 33.8597 9.23676 33.6508 9.72358 33.2328C9.94092 33.0461 10.0496 32.953 10.1537 32.8599C12.5416 30.7312 14.1829 27.895 14.8367 24.7673C14.8652 24.631 14.8918 24.4904 14.9451 24.2092C15.0645 23.5797 15.1242 23.2649 15.1877 22.9881C16.683 16.4682 22.3383 11.7336 29.0333 11.3965C29.3176 11.3822 29.6387 11.3782 30.281 11.3703C30.5676 11.3667 30.711 11.3649 30.8505 11.3606C34.0513 11.2613 37.1357 10.1412 39.6515 8.16456C39.7613 8.07833 39.8723 7.98777 40.0943 7.80663Z" fill="#262626"/>
<mask id="mask0_60862_99" style="mask-type:luminance" maskUnits="userSpaceOnUse" x="23" y="28" width="55" height="44">
<path d="M77.8144 28H23V71.2196H77.8144V28Z" fill="white"/>
</mask>
<g mask="url(#mask0_60862_99)">
<path d="M63.8235 37.9997L53.3003 35.582C52.8993 35.4211 52.5626 35.0543 52.3642 34.5622C52.1659 34.0701 52.1222 33.493 52.2428 32.9579C52.3633 32.4228 52.6383 31.9736 53.0071 31.709C53.3759 31.4443 53.8085 31.3861 54.2095 31.5469L65.0365 33.9646C65.5716 34.1255 66.0209 34.4923 66.2855 34.9844C66.5501 35.4765 66.6084 36.0536 66.4475 36.5886C66.2867 37.1237 65.9199 37.573 65.4278 37.8376C64.9357 38.1022 64.3586 38.1605 63.8235 37.9997ZM75.186 46.5484C75.3469 46.0134 75.2886 45.4363 75.024 44.9442C74.7593 44.4521 74.3101 44.0853 73.775 43.9244L44.6293 35.0373C44.2282 34.8765 43.7957 34.9347 43.4269 35.1994C43.058 35.464 42.7831 35.9132 42.6625 36.4483C42.542 36.9834 42.5857 37.5605 42.784 38.0526C42.9823 38.5447 43.3191 38.9115 43.7201 39.0724L72.562 47.9595C73.0971 48.1203 73.6741 48.062 74.1662 47.7974C74.6583 47.5328 75.0252 47.0835 75.186 46.5484ZM67.7843 51.6562C67.9451 51.1211 67.8868 50.544 67.6222 50.0519C67.3576 49.5598 66.9083 49.193 66.3732 49.0321L47.1465 43.3797C46.7454 43.2189 46.3129 43.2772 45.9441 43.5418C45.5752 43.8064 45.3003 44.2557 45.1797 44.7908C45.0591 45.3258 45.1028 45.9029 45.3012 46.395C45.4995 46.8871 45.8362 47.2539 46.2373 47.4148L65.1602 53.0672C65.6953 53.2281 66.2724 53.1698 66.7645 52.9051C67.2566 52.6405 67.6234 52.1913 67.7843 51.6562ZM60.3825 56.7639C60.5434 56.2288 60.4851 55.6518 60.2204 55.1597C59.9558 54.6676 59.5066 54.3007 58.9715 54.1399L49.6637 51.7222C49.2626 51.5613 48.8301 51.6196 48.4612 51.8842C48.0924 52.1489 47.8175 52.5981 47.6969 53.1332C47.5763 53.6683 47.62 54.2453 47.8184 54.7375C48.0167 55.2296 48.3534 55.5964 48.7545 55.7572L57.7585 58.1749C58.2935 58.3358 58.8706 58.2775 59.3627 58.0129C59.8548 57.7483 60.2216 57.299 60.3825 56.7639ZM61.0509 64.2977C61.2117 63.7626 61.1534 63.1855 60.8888 62.6934C60.6242 62.2013 60.1749 61.8345 59.6398 61.6737L46.1321 57.6386C45.7311 57.4777 45.2986 57.536 44.9297 57.8007C44.5609 58.0653 44.2859 58.5145 44.1654 59.0496C44.0448 59.5847 44.0885 60.1618 44.2868 60.6539C44.4852 61.146 44.8219 61.5128 45.223 61.6737L58.4268 65.7087C58.9619 65.8696 59.539 65.8113 60.0311 65.5467C60.5232 65.282 60.89 64.8328 61.0509 64.2977Z" fill="#737373"/>
<path d="M54.4476 38.001L40.4166 33.7417C40.1024 33.6463 39.7702 33.6256 39.4466 33.6814C39.123 33.7372 38.8169 33.8678 38.5527 34.0629C38.2886 34.2581 38.0737 34.5122 37.9252 34.8052C37.7768 35.0981 37.6988 35.4217 37.6977 35.7501L37.6402 53.3446C35.9353 52.2473 33.9136 51.7487 31.894 51.9276C29.8744 52.1065 27.9718 52.9526 26.4863 54.3325C25.0008 55.7124 24.017 57.5475 23.6899 59.5485C23.3628 61.5494 23.7112 63.6023 24.68 65.3834C25.6488 67.1644 27.183 68.5723 29.0405 69.3849C30.898 70.1975 32.9732 70.3687 34.9388 69.8713C36.9043 69.374 38.6484 68.2365 39.8959 66.6382C41.1434 65.0399 41.8234 63.0718 41.8285 61.0443L41.9018 38.5956L53.2231 42.0314C53.4879 42.1118 53.7661 42.1393 54.0415 42.1122C54.317 42.0851 54.5845 42.004 54.8286 41.8736C55.0727 41.7432 55.2888 41.5659 55.4645 41.352C55.6401 41.138 55.7719 40.8916 55.8523 40.6267C55.9327 40.3619 55.9601 40.0838 55.9331 39.8083C55.906 39.5328 55.8249 39.2654 55.6945 39.0212C55.564 38.7771 55.3868 38.561 55.1729 38.3853C54.9589 38.2097 54.7125 38.0779 54.4476 37.9975V38.001ZM32.6834 65.9301C31.7112 65.927 30.7617 65.6356 29.9551 65.0928C29.1485 64.55 28.521 63.7802 28.1518 62.8808C27.7827 61.9814 27.6886 60.9927 27.8814 60.0398C28.0742 59.0868 28.5452 58.2125 29.2349 57.5272C29.9246 56.842 30.802 56.3767 31.7562 56.1902C32.7104 56.0036 33.6984 56.1042 34.5954 56.4792C35.4924 56.8542 36.2581 57.4867 36.7956 58.2968C37.3331 59.107 37.6183 60.0583 37.6151 61.0305C37.6109 62.3343 37.0889 63.5829 36.164 64.5017C35.2391 65.4206 33.9871 65.9344 32.6834 65.9301Z" fill="#A1A1A1"/>
</g>
</g>
<defs>
<clipPath id="clip0_60862_99">
<rect width="100" height="100" fill="white"/>
</clipPath>
</defs>
</svg>
