<svg width="50" height="18" viewBox="0 0 50 18" fill="none" xmlns="http://www.w3.org/2000/svg">
<rect width="50" height="18" fill="#262626"/>
<mask id="mask0_24_2" style="mask-type:luminance" maskUnits="userSpaceOnUse" x="2" y="-1" width="46" height="18">
<path d="M4.55697 1C4.54134 1 4.49013 1.01552 4.41884 1.07006C4.23443 1.21117 4.33108 1.70365 4.30136 2.11588C4.25046 2.82185 4.25965 3.13844 4.22315 3.41669C4.17048 3.81828 4.15915 4.3405 4.18037 5.46108C4.18818 5.87357 4.37286 6.38387 4.30006 6.74021C4.24384 7.01534 4.22588 7.21848 4.17808 7.41822L4.17769 7.41986C4.12732 7.63032 4.07187 7.86199 4.05392 8.22097C4.03334 8.63278 4.00054 9.21729 4 9.59798C3.99987 9.68748 4.03491 9.74265 4.08149 9.77727C4.28103 9.92562 4.72774 9.88255 5.02589 9.9411C5.26941 9.98891 5.58374 10.0225 6.04474 10.0459C6.3072 10.0592 6.54733 10.1339 6.80411 10.1535C7.10755 10.1767 7.40389 10.1209 7.71385 10.0626L7.73454 10.0587C7.99852 10.009 8.20001 9.90584 8.44349 9.83046C8.73197 9.74115 9.08199 9.78254 9.35608 9.74494C9.57106 9.71545 9.71267 9.46193 9.82846 9.29933C9.93978 9.14302 10.0301 8.95131 10.1205 8.66501C10.2043 8.39992 10.2614 8.1751 10.3009 7.91428C10.34 7.65608 10.5114 7.45598 10.5876 7.25707C10.6737 7.03263 10.7291 6.78371 10.7846 6.53411L10.7896 6.51183C10.8473 6.25295 10.8541 6.0625 10.8954 5.81394C10.9484 5.49441 10.9367 5.34276 10.9452 5.29762C11.0496 4.7453 10.9304 6.77993 10.8928 7.0306C10.8112 7.57447 10.8302 8.38433 10.7884 8.78081C10.7429 9.21325 10.8301 9.5251 10.9225 9.5992C11.0882 9.732 11.2405 9.88527 11.4547 9.97868C12.1883 10.2986 13.368 10.0454 13.5832 9.97231C13.7871 9.90303 13.9717 9.83153 14.1717 9.68716C14.4443 9.49038 14.483 9.17995 14.5404 8.92331C14.6014 8.65039 14.6873 8.31531 14.7857 8.02178C14.8578 7.80668 14.8643 7.60758 14.9665 7.28865C15.0062 7.16475 15.047 7.05764 15.0858 6.96097M15.0858 6.96097C15.1415 6.82228 15.1931 6.70509 15.2313 6.59063C15.3012 6.38096 15.3094 5.87332 15.289 5.34472C15.2824 5.171 15.228 5.19349 15.207 5.30166C15.1017 5.84523 15.1103 6.09797 15.0905 6.82566C15.0892 6.87081 15.0877 6.91588 15.0858 6.96097ZM15.0858 6.96097C15.0683 7.38637 15.026 7.81275 15.008 8.30953C14.9969 8.61576 14.8862 8.8524 14.8202 9.10804C14.7458 9.39603 14.7506 9.64795 14.7089 9.84564C14.6542 10.1045 14.6379 10.3652 14.6199 10.5725C14.6124 10.6575 14.598 11.0829 14.5999 11.7163M14.5999 11.7163C14.6004 11.8835 14.602 12.0652 14.6052 12.2589C14.6131 12.7379 14.7178 13.8476 14.6391 14.5089C14.6121 14.7358 14.5391 14.895 14.4793 14.9733C14.3455 15.1485 14.0637 15.1184 13.8254 15.1775C13.6319 15.2254 13.4118 15.2362 12.7912 15.2324C12.6148 15.2314 12.5337 15.0822 12.4563 14.9519C12.0742 14.3081 12.4862 12.9661 12.5801 12.8064C12.6789 12.6386 12.8264 12.5037 13.0459 12.4161C13.2363 12.3402 13.4383 12.2638 13.6699 12.2379C13.8877 12.2135 14.0499 12.0851 14.2605 11.9961C14.3767 11.9469 14.4928 11.841 14.5999 11.7163ZM14.5999 11.7163C14.6926 11.6084 14.7784 11.4864 14.8517 11.3749C14.9759 11.1862 15.1647 11.0032 15.3754 10.8632C15.5483 10.7484 15.7593 10.6921 15.9581 10.5061C16.2044 10.2755 16.3871 10.1549 16.5934 10.0146C16.8167 9.86291 17.0541 9.50535 17.2565 9.2409C17.3848 9.07327 17.4465 8.76982 17.53 8.51575C17.6218 8.2365 17.8006 7.90017 17.8466 7.66278C17.8979 7.39816 18.1001 7.0837 18.2571 6.79298C18.384 6.55811 18.4666 6.28499 18.5493 6.08674C18.6303 5.89241 18.7177 5.70706 18.7883 5.4855C18.8574 5.26875 18.8972 5.02105 18.9284 4.79821C18.9368 4.73832 18.9371 4.68005 18.9315 4.62384M18.9315 4.62384C18.9179 4.48795 18.8693 4.36407 18.8146 4.25828C18.7667 4.1659 18.8525 4.40716 18.9315 4.62384ZM18.9315 4.62384C18.953 4.68257 18.9739 4.73949 18.9915 4.78747L18.9995 4.80903C19.1007 5.08441 19.2214 5.34639 19.3366 5.4953C19.4729 5.67157 19.8043 5.64197 20.1104 5.63272C20.3468 5.62557 20.5629 5.35987 20.778 5.25947C20.9724 5.16872 21.1991 5.16336 21.4075 5.17294C21.7285 5.1877 21.9197 5.68467 22.0588 5.86405C22.1229 5.94666 22.1317 6.05994 22.1349 6.16001C22.1411 6.35872 21.9727 6.54955 21.9114 6.83429C21.8068 7.32094 21.9304 8.06001 22.0311 8.2777C22.1825 8.60487 22.1963 8.82088 22.2981 8.99837C22.4076 9.18926 22.4352 9.42218 22.5741 9.6265C22.8179 9.98493 23.7269 9.63071 24.0117 9.55289C24.2549 9.48645 24.4292 9.40041 24.6184 9.30602C24.8048 9.21296 24.8135 8.88646 24.8531 8.65264C24.9122 8.30409 24.9361 7.68464 25.0244 7.34521C25.0932 7.08103 25.1204 6.86534 25.1422 6.64123C25.1631 6.42628 25.2058 6.21946 25.2292 5.70235C25.2436 5.38442 25.2703 5.14106 25.2937 5.09234C25.5856 4.48599 25.3877 6.84899 25.4055 7.11824C25.4322 7.52137 25.4582 8.0646 25.4761 8.41135C25.492 8.7227 25.5288 9.07293 25.5759 9.29106C25.6198 9.49456 25.6931 9.72837 25.829 9.8839C26.1726 10.2771 27.2027 9.88326 27.4607 9.84365C27.5244 9.83387 27.5742 9.81428 27.6134 9.78262C27.7694 9.65672 27.7663 9.41521 27.8134 9.22498C27.8621 9.02834 27.9074 8.82149 27.9564 8.6069C28.0162 8.34525 28.0753 8.1514 28.1722 7.93943C28.2894 7.68303 28.3099 7.45688 28.4069 7.26379C28.5086 7.0612 28.5818 6.87007 28.6466 6.68405C28.7025 6.52398 28.7724 6.39371 28.8446 6.26672M28.8446 6.26672C28.8705 6.221 28.8968 6.17571 28.9228 6.12961C29.0313 5.93715 29.1733 5.78441 29.3496 5.65735C29.5789 5.49218 29.8144 5.40404 30.0106 5.29111M28.8446 6.26672C28.8792 6.06303 28.8875 5.84152 29.0386 5.74428C29.1295 5.68574 29.2235 5.63574 29.3138 5.59158C29.4944 5.50323 29.7324 5.32586 30.0106 5.29111M28.8446 6.26672C28.8362 6.31621 28.8262 6.36464 28.8123 6.40999C28.7405 6.64347 28.7643 7.93338 28.6915 8.65988C28.685 8.72561 28.6766 8.81346 28.6996 8.86524C28.7739 9.03297 28.9918 9.11453 29.1724 9.22821C29.3452 9.33692 29.5456 9.41336 30.1912 9.45462C30.6781 9.48574 31.6013 9.46062 32.0947 9.44611C32.7644 9.42643 33.0115 9.34921 33.0981 9.28932C33.2654 9.17366 33.305 8.9413 33.4009 8.78068C33.5035 8.60872 33.5282 8.35215 33.6041 8.07567C33.6633 7.85987 33.7273 7.67688 33.8017 7.48901C33.867 7.32396 33.9536 7.17465 34.0407 7.01795M30.0106 5.29111L30.0129 5.28978C30.1994 5.18212 30.4112 5.13444 30.6159 5.0807C30.8385 5.02224 31.4424 5.01102 31.8303 5.11065C31.8809 5.12364 31.9235 5.15274 31.9716 5.17043C32.3051 5.29317 30.5129 5.26254 30.0661 5.28617C30.0474 5.28715 30.0289 5.28882 30.0106 5.29111ZM34.0407 7.01795C34.0785 6.94999 34.1163 6.88063 34.1526 6.80799C34.2175 6.67799 34.2768 6.54403 34.3368 6.41434M34.0407 7.01795C34.0534 6.83233 34.0816 6.67918 34.1728 6.5818C34.2299 6.52083 34.2835 6.46461 34.3368 6.41434M34.0407 7.01795C34.0304 7.16852 34.0304 7.34045 34.0153 7.52131C33.9758 7.99279 34.0475 8.34473 34.1191 8.43868C34.2552 8.61711 34.4185 8.80552 34.5538 8.96069C34.7 9.12823 34.8847 9.2252 35.1051 9.29304C35.3182 9.35861 35.5168 9.42653 35.7688 9.46963C36.0358 9.51531 36.2373 9.56544 37.4887 9.56373C37.9707 9.56307 38.1594 9.41898 38.3826 9.35729C38.5939 9.29892 38.749 9.16873 38.9204 9.03388C39.124 8.87369 39.1707 8.64064 39.2422 8.40255C39.3094 8.1788 39.3875 7.99181 39.4944 7.82232C39.5985 7.6572 39.6337 7.46016 39.7186 7.26424C39.8057 7.06309 39.8272 6.804 39.8713 6.57501C39.9136 6.35489 39.965 6.15058 40.0716 5.97909C40.1855 5.79596 40.3964 5.68514 40.5712 5.57766C40.7373 5.47559 40.9423 5.42908 41.1554 5.38074L41.1736 5.37662C41.3855 5.32849 41.8762 5.33475 42.3941 5.30503C43.3413 5.25067 43.518 5.43267 43.6878 5.54008C43.7294 5.56638 43.7416 5.62673 43.7642 5.62883C43.8281 5.63478 43.8573 5.48829 43.8925 5.45657C44.0641 5.30228 43.9398 6.11051 43.969 6.60181C44.0294 7.61485 43.8201 7.74388 43.7509 7.9362C43.6848 8.1196 43.5823 8.30415 43.5027 8.49847C43.4158 8.71093 43.3403 8.89217 43.1937 9.09601C43.0604 9.28146 42.9126 9.48371 42.7572 9.66827C42.6293 9.82036 42.4219 9.87635 42.2158 9.9078C41.6679 9.99141 40.7736 9.90098 40.5721 9.83556C40.4702 9.80245 40.3588 9.77609 40.2576 9.71867C40.0729 9.61396 40.0304 9.36484 39.9311 9.14872C39.8993 9.03596 39.8753 8.91913 39.8515 8.80654L39.8499 8.79938C39.8385 8.74829 39.8272 8.69786 39.8155 8.52939M34.3368 6.41434C34.3754 6.33112 34.4142 6.24966 34.455 6.17213C34.5011 6.08438 34.5197 5.98591 34.5763 5.9048C34.6938 5.73643 34.9173 5.70822 35.1772 5.57352C35.4072 5.45425 35.679 5.43792 35.9259 5.37254C36.1438 5.31483 36.3501 5.27911 37.1332 5.28519C37.2975 5.28647 37.3293 5.33998 37.3239 5.36656C37.2922 5.52247 36.9759 5.47542 36.7768 5.5302C36.5693 5.58728 36.3234 5.64776 36.11 5.7046C35.8942 5.7621 35.6679 5.80058 35.4523 5.88857C35.1778 6.00063 34.9349 6.10599 34.6756 6.19434C34.5475 6.23796 34.4428 6.31441 34.3368 6.41434ZM44.0112 4.37495C44.0169 4.39208 44.0226 4.40921 44.0274 5.13631C44.0323 5.86341 44.0362 7.29997 44.044 8.06296C44.0533 8.97642 44.1652 9.22049 44.2532 9.43927C44.35 9.68005 44.4547 9.90322 44.6201 10.0765C44.6881 10.1477 44.8085 10.1358 44.9102 10.1173C45.079 9.99665 45.2083 9.91727 45.2982 9.87577C45.3454 9.85777 45.3958 9.84602 45.5183 9.76246M25.136 1.74133C25.1016 1.72987 25.0339 1.72397 24.9396 1.73835C24.8486 1.75223 24.8004 1.86706 24.7705 1.97507C24.7172 2.16798 24.8821 2.37664 25.0311 2.53181C25.1955 2.70305 25.4296 2.76504 25.6855 2.76086C25.7493 2.54328 25.7726 2.22839 25.8333 1.98541C25.851 1.93564 25.8704 1.89249 25.8904 1.84803" stroke="white" stroke-width="3" stroke-linecap="round"/>
</mask>
<g mask="url(#mask0_24_2)">
<path d="M36.6335 10.4899C36.5215 10.4899 36.4335 10.4419 36.3695 10.3459C36.2975 10.2499 36.2615 10.1259 36.2615 9.97391C36.2615 9.81391 36.3015 9.6899 36.3815 9.6019C36.4615 9.5139 36.5655 9.4699 36.6935 9.4699C37.1735 9.4699 37.6135 9.3419 38.0135 9.0859C38.4215 8.8219 38.7575 8.4659 39.0215 8.0179C39.0055 7.8979 38.9975 7.76991 38.9975 7.6339C38.9975 7.0259 39.1175 6.4859 39.3575 6.0139C39.5975 5.5419 39.9215 5.1699 40.3295 4.8979C40.7455 4.6259 41.2175 4.4899 41.7455 4.4899C42.0255 4.4899 42.3015 4.5459 42.5735 4.6579C42.8455 4.7619 43.0735 4.9059 43.2575 5.0899V4.5979C43.3295 4.5739 43.4135 4.5539 43.5095 4.5379C43.6055 4.5219 43.7055 4.5139 43.8095 4.5139C44.0015 4.5139 44.1815 4.5419 44.3495 4.5979V8.2219C44.3495 8.6619 44.4055 8.9779 44.5175 9.1699C44.6375 9.3619 44.8255 9.4579 45.0815 9.4579C45.1695 9.4579 45.2655 9.43791 45.3695 9.39791C45.4735 9.35791 45.5815 9.2979 45.6935 9.2179C45.8295 9.2819 45.9415 9.39391 46.0295 9.55391C46.1175 9.70591 46.1575 9.8579 46.1495 10.0099C46.0215 10.1539 45.8575 10.2699 45.6575 10.3579C45.4575 10.4459 45.2415 10.4899 45.0095 10.4899H44.9975C44.2375 10.4899 43.7255 10.1779 43.4615 9.55391C43.2295 9.84991 42.9495 10.0819 42.6215 10.2499C42.2935 10.4099 41.9295 10.4899 41.5295 10.4899C41.0495 10.4899 40.6255 10.3819 40.2575 10.1659C39.8975 9.94991 39.6095 9.64991 39.3935 9.2659C39.0575 9.6579 38.6535 9.9619 38.1815 10.1779C37.7095 10.3859 37.1935 10.4899 36.6335 10.4899ZM40.1135 7.6339C40.1135 8.2019 40.2415 8.6499 40.4975 8.9779C40.7615 9.2979 41.1215 9.4579 41.5775 9.4579C42.0815 9.4579 42.4855 9.2859 42.7895 8.9419C43.1015 8.5979 43.2575 8.1459 43.2575 7.5859V6.2419C43.0975 6.0259 42.8935 5.8539 42.6455 5.7259C42.3975 5.5899 42.1415 5.5219 41.8775 5.5219C41.5335 5.5219 41.2295 5.6139 40.9655 5.7979C40.7015 5.9819 40.4935 6.2339 40.3415 6.55391C40.1895 6.8659 40.1135 7.2259 40.1135 7.6339Z" fill="#E5E5E5"/>
<path d="M31.1022 10.4899C30.9902 10.4899 30.9022 10.4419 30.8382 10.3459C30.7662 10.2499 30.7302 10.1259 30.7302 9.97391C30.7302 9.81391 30.7702 9.6899 30.8502 9.6019C30.9302 9.5139 31.0342 9.4699 31.1622 9.4699C31.6662 9.4699 32.1262 9.3299 32.5422 9.0499C32.9582 8.7699 33.2942 8.3899 33.5502 7.9099C33.5342 7.78191 33.5262 7.6499 33.5262 7.5139C33.5262 6.9219 33.6382 6.4019 33.8622 5.9539C34.0862 5.4979 34.3942 5.1419 34.7862 4.8859C35.1862 4.6219 35.6422 4.4899 36.1542 4.4899C36.5382 4.4899 36.8862 4.5659 37.1982 4.7179C37.5182 4.8619 37.7782 5.0739 37.9782 5.3539C37.8822 5.6819 37.6502 5.9179 37.2822 6.0619C37.0182 5.7019 36.6542 5.5219 36.1902 5.5219C35.7262 5.5219 35.3502 5.6979 35.0622 6.0499C34.7822 6.3939 34.6422 6.8619 34.6422 7.4539C34.6422 8.0619 34.8182 8.5499 35.1702 8.9179C35.5302 9.2859 36.0375 9.4699 36.6935 9.4699C36.7975 9.4699 36.8822 9.5219 36.9462 9.6259C37.0182 9.7219 37.0542 9.8459 37.0542 9.9979C37.0542 10.1499 37.0142 10.2699 36.9342 10.3579C36.8622 10.4459 36.7582 10.4899 36.6222 10.4899C36.0142 10.4899 35.4782 10.3739 35.0142 10.1419C34.5582 9.90191 34.2022 9.56991 33.9462 9.14591C33.6102 9.5779 33.1982 9.9099 32.7102 10.1419C32.2222 10.3739 31.6862 10.4899 31.1022 10.4899Z" fill="#E5E5E5"/>
<path d="M26.6318 9.4579C26.8878 9.4579 27.1398 9.3339 27.3877 9.0859C27.6438 8.8379 27.8637 8.5019 28.0477 8.0779C28.0157 7.8939 27.9998 7.7059 27.9998 7.5139C27.9998 6.9219 28.1118 6.4019 28.3358 5.9539C28.5598 5.4979 28.8678 5.1419 29.2598 4.8859C29.6598 4.6219 30.1158 4.4899 30.6278 4.4899C31.0118 4.4899 31.3597 4.5659 31.6718 4.7179C31.9917 4.8619 32.2518 5.0739 32.4518 5.3539C32.3558 5.6819 32.1237 5.9179 31.7557 6.0619C31.4917 5.7019 31.1278 5.5219 30.6638 5.5219C30.1997 5.5219 29.8238 5.6979 29.5358 6.0499C29.2558 6.3939 29.1158 6.8619 29.1158 7.4539C29.1158 8.0619 29.2918 8.5499 29.6438 8.9179C30.0038 9.2859 30.5118 9.4699 31.1678 9.4699C31.2718 9.4699 31.3558 9.5219 31.4198 9.6259C31.4918 9.7219 31.5278 9.8459 31.5278 9.9979C31.5278 10.1499 31.4878 10.2699 31.4078 10.3579C31.3357 10.4459 31.2317 10.4899 31.0957 10.4899C30.5277 10.4899 30.0238 10.3859 29.5838 10.1779C29.1438 9.9699 28.7918 9.67791 28.5278 9.3019C28.0318 10.0939 27.3717 10.4899 26.5477 10.4899C26.4437 10.4899 26.3597 10.4419 26.2958 10.3459C26.2318 10.2499 26.1997 10.1259 26.1997 9.97391C26.1997 9.62991 26.3438 9.4579 26.6318 9.4579Z" fill="#E5E5E5"/>
<path d="M22.9872 9.4579C23.1552 9.4579 23.3352 9.4059 23.5272 9.3019C23.7192 9.1979 23.8992 9.03791 24.0672 8.82191C24.2672 8.5499 24.4112 8.23791 24.4992 7.88591C24.5952 7.53391 24.6552 7.1779 24.6792 6.8179V4.6579C24.7512 4.6339 24.8352 4.6139 24.9312 4.5979C25.0272 4.5819 25.1272 4.57391 25.2312 4.57391C25.4152 4.57391 25.5952 4.6019 25.7712 4.6579V8.1139C25.7712 8.5379 25.8352 8.8699 25.9632 9.10991C26.0992 9.34191 26.3232 9.4579 26.6352 9.4579C26.7712 9.4579 26.8632 9.5139 26.9112 9.62591C26.9592 9.73791 26.9832 9.8579 26.9832 9.9859C26.9832 10.1139 26.9472 10.2299 26.8752 10.3339C26.8112 10.4379 26.7032 10.4899 26.5512 10.4899C25.7192 10.4899 25.1792 10.0979 24.9312 9.3139C24.8192 9.4979 24.6992 9.6539 24.5712 9.78191C24.3552 9.9979 24.1032 10.1699 23.8152 10.2979C23.5352 10.4259 23.2312 10.4899 22.9032 10.4899C22.7912 10.4899 22.7072 10.4339 22.6512 10.3219C22.5872 10.2179 22.5552 10.1019 22.5552 9.97391C22.5552 9.83791 22.5912 9.71791 22.6632 9.6139C22.7272 9.5099 22.8352 9.4579 22.9872 9.4579ZM25.2432 2.9299C25.0192 2.9299 24.8272 2.8499 24.6672 2.6899C24.5072 2.52991 24.4272 2.33791 24.4272 2.11391C24.4272 1.8739 24.5032 1.6779 24.6552 1.5259C24.8152 1.3739 25.0112 1.2979 25.2432 1.2979C25.4832 1.2979 25.6792 1.3739 25.8312 1.5259C25.9832 1.6779 26.0592 1.8739 26.0592 2.11391C26.0592 2.34591 25.9792 2.5419 25.8192 2.7019C25.6672 2.8539 25.4752 2.9299 25.2432 2.9299Z" fill="#E5E5E5"/>
<path d="M15.6276 11.0779C15.5396 11.1419 15.4796 11.1739 15.4476 11.1739C15.3276 11.1739 15.2156 11.0819 15.1116 10.8979C14.9996 10.7219 14.9436 10.5459 14.9436 10.3699C14.9436 10.3059 14.9636 10.2579 15.0036 10.2259C15.0356 10.1859 15.1036 10.1299 15.2076 10.0579C15.8796 9.60991 16.4556 9.12991 16.9356 8.61791C17.4156 8.09791 17.7836 7.56991 18.0396 7.03391C18.2956 6.48991 18.4196 5.96991 18.4116 5.47391C18.3236 5.35391 18.2356 5.21391 18.1476 5.05391C18.0676 4.88591 17.9996 4.71791 17.9436 4.54991C17.8956 4.38191 17.8716 4.24191 17.8716 4.12991C18.0076 4.00191 18.2116 3.89791 18.4836 3.8179C18.7556 3.73791 18.9996 3.7059 19.2156 3.72191C19.3196 3.97791 19.3956 4.30991 19.4436 4.71791C19.5636 4.69391 19.6956 4.6659 19.8396 4.6339C20.0956 4.5779 20.2996 4.54191 20.4516 4.52591C20.6116 4.50191 20.7476 4.48991 20.8596 4.48991C21.2916 4.48991 21.6316 4.65391 21.8796 4.98191C22.1276 5.30191 22.2516 5.73791 22.2516 6.28991V8.22191C22.2516 8.66191 22.3076 8.97791 22.4196 9.16991C22.5396 9.36191 22.7276 9.4579 22.9836 9.4579C23.0956 9.4579 23.1796 9.50591 23.2356 9.60191C23.2996 9.69791 23.3316 9.8259 23.3316 9.9859C23.3316 10.1139 23.2956 10.2299 23.2236 10.3339C23.1596 10.4379 23.0516 10.4899 22.8996 10.4899C21.7396 10.4899 21.1596 9.77791 21.1596 8.35391V6.49391C21.1596 6.13391 21.1196 5.88191 21.0396 5.73791C20.9596 5.59391 20.8156 5.52191 20.6076 5.52191C20.5356 5.52191 20.4556 5.52991 20.3676 5.54591C20.2796 5.5619 20.1236 5.59391 19.8996 5.64191C19.7236 5.68191 19.5716 5.70991 19.4436 5.72591C19.3636 6.74991 18.9996 7.70991 18.3516 8.60591C17.7036 9.49391 16.7956 10.3179 15.6276 11.0779Z" fill="#E5E5E5"/>
<path d="M9.34116 10.3699C9.15716 10.3059 9.24916 10.2099 9.11316 10.0819C8.98516 9.94591 8.90116 9.7859 8.86116 9.6019C9.00516 9.46591 8.92116 9.29391 9.11316 9.08591C9.30516 8.8779 9.49316 8.6299 9.67716 8.3419C9.86116 8.0459 10.0132 7.71391 10.1332 7.34591C10.2612 6.97791 10.3252 6.56591 10.3252 6.10991V4.6579C10.3972 4.6339 10.4812 4.6139 10.5772 4.5979C10.6732 4.5819 10.7732 4.5739 10.8772 4.5739C11.0612 4.5739 11.2412 4.6019 11.4172 4.6579V7.4299C11.4172 8.75791 11.9012 9.42191 12.8692 9.42191C13.4372 9.42191 13.8532 9.19391 14.1172 8.73791C14.3892 8.27391 14.5252 7.6419 14.5252 6.8419V4.6579C14.6932 4.6019 14.8732 4.5739 15.0652 4.5739C15.2652 4.5739 15.4492 4.6019 15.6172 4.6579V13.6819C15.6172 15.5539 14.9332 16.4899 13.5652 16.4899C12.9332 16.4899 12.4372 16.3019 12.0772 15.9259C11.7252 15.5499 11.5492 15.0339 11.5492 14.3779C11.5492 12.9139 12.5492 11.5419 14.5492 10.2619V9.69791C14.0932 10.2259 13.4852 10.4899 12.7252 10.4899C11.6212 10.4899 10.8932 9.99391 10.5412 9.00191C10.1732 9.60991 9.77316 10.0659 9.34116 10.3699ZM12.6292 14.3539C12.6292 14.6979 12.7092 14.9659 12.8692 15.1579C13.0292 15.3579 13.2492 15.4579 13.5292 15.4579C14.2092 15.4579 14.5492 14.8659 14.5492 13.6819V11.5339C13.2692 12.4379 12.6292 13.3779 12.6292 14.3539Z" fill="#E5E5E5"/>
<path d="M3.67715 10.4899V1.82591C3.86915 1.76991 4.05315 1.74191 4.22915 1.74191C4.43715 1.74191 4.62515 1.76991 4.79315 1.82591V9.44591H9.02915C9.06915 9.50991 9.09315 9.60991 9.10115 9.74591C9.11715 9.87391 9.12115 10.0099 9.11315 10.1539C9.10515 10.2899 9.07715 10.4019 9.02915 10.4899H3.67715Z" fill="#E5E5E5"/>
</g>
</svg>
